<svg width="40" height="16" viewBox="0 0 40 16" fill="none" xmlns="http://www.w3.org/2000/svg">
<rect width="40" height="16" rx="8" fill="#FD2525"/>
<path d="M6.76136 12.1449C6.34659 12.1449 5.97159 12.0682 5.63636 11.9148C5.30114 11.7585 5.03551 11.5327 4.83949 11.2372C4.64631 10.9418 4.54972 10.5795 4.54972 10.1506C4.54972 9.78125 4.62074 9.47727 4.76278 9.23864C4.90483 9 5.09659 8.81108 5.33807 8.67188C5.57955 8.53267 5.84943 8.42756 6.14773 8.35653C6.44602 8.28551 6.75 8.23153 7.05966 8.1946C7.4517 8.14915 7.76989 8.11222 8.0142 8.08381C8.25852 8.05256 8.43608 8.00284 8.54688 7.93466C8.65767 7.86648 8.71307 7.75568 8.71307 7.60227V7.57244C8.71307 7.20028 8.60795 6.91193 8.39773 6.70739C8.19034 6.50284 7.88068 6.40057 7.46875 6.40057C7.03977 6.40057 6.7017 6.49574 6.45455 6.68608C6.21023 6.87358 6.04119 7.08239 5.94744 7.3125L4.75 7.03977C4.89205 6.64205 5.09943 6.32102 5.37216 6.0767C5.64773 5.82955 5.96449 5.65057 6.32244 5.53977C6.6804 5.42614 7.05682 5.36932 7.4517 5.36932C7.71307 5.36932 7.99006 5.40057 8.28267 5.46307C8.57813 5.52273 8.85369 5.63352 9.10938 5.79545C9.3679 5.95739 9.57955 6.18892 9.74432 6.49006C9.90909 6.78835 9.99148 7.17614 9.99148 7.65341V12H8.74716V11.1051H8.69602C8.61364 11.2699 8.49006 11.4318 8.32528 11.5909C8.16051 11.75 7.94886 11.8821 7.69034 11.9872C7.43182 12.0923 7.12216 12.1449 6.76136 12.1449ZM7.03835 11.1222C7.39063 11.1222 7.69176 11.0526 7.94176 10.9134C8.1946 10.7741 8.38636 10.5923 8.51705 10.3679C8.65057 10.1406 8.71733 9.89773 8.71733 9.6392V8.79545C8.67188 8.84091 8.58381 8.88352 8.45312 8.9233C8.32528 8.96023 8.17898 8.9929 8.0142 9.02131C7.84943 9.04687 7.68892 9.07102 7.53267 9.09375C7.37642 9.11364 7.24574 9.13068 7.14062 9.14489C6.89347 9.17614 6.66761 9.22869 6.46307 9.30256C6.26136 9.37642 6.09943 9.48295 5.97727 9.62216C5.85795 9.75852 5.7983 9.94034 5.7983 10.1676C5.7983 10.483 5.91477 10.7216 6.14773 10.8835C6.38068 11.0426 6.67756 11.1222 7.03835 11.1222ZM12.9627 3.27273V12H11.6886V3.27273H12.9627ZM14.6768 14.4545V5.45455H15.9212V6.51562H16.0277C16.1016 6.37926 16.2081 6.22159 16.3473 6.04261C16.4865 5.86364 16.6797 5.70739 16.9268 5.57386C17.174 5.4375 17.5007 5.36932 17.907 5.36932C18.4354 5.36932 18.907 5.50284 19.3217 5.76989C19.7365 6.03693 20.0618 6.42187 20.2976 6.92472C20.5362 7.42756 20.6555 8.03267 20.6555 8.74006C20.6555 9.44744 20.5376 10.054 20.3018 10.5597C20.0661 11.0625 19.7422 11.4503 19.3303 11.723C18.9183 11.9929 18.4482 12.1278 17.9197 12.1278C17.522 12.1278 17.1967 12.0611 16.9439 11.9276C16.6939 11.794 16.4979 11.6378 16.3558 11.4588C16.2138 11.2798 16.1044 11.1207 16.0277 10.9815H15.951V14.4545H14.6768ZM15.9254 8.72727C15.9254 9.1875 15.9922 9.59091 16.1257 9.9375C16.2592 10.2841 16.4524 10.5554 16.7053 10.7514C16.9581 10.9446 17.2678 11.0412 17.6342 11.0412C18.0149 11.0412 18.3331 10.9403 18.5888 10.7386C18.8445 10.5341 19.0376 10.2571 19.1683 9.90767C19.3018 9.55824 19.3686 9.16477 19.3686 8.72727C19.3686 8.29545 19.3033 7.90767 19.1726 7.56392C19.0447 7.22017 18.8516 6.94886 18.593 6.75C18.3374 6.55114 18.0178 6.4517 17.6342 6.4517C17.2649 6.4517 16.9524 6.54687 16.6967 6.73722C16.4439 6.92756 16.2521 7.19318 16.1214 7.53409C15.9908 7.875 15.9254 8.27273 15.9254 8.72727ZM23.3572 8.11364V12H22.0831V3.27273H23.3402V6.51989H23.4212C23.5746 6.16761 23.8089 5.88778 24.1243 5.6804C24.4396 5.47301 24.8516 5.36932 25.3601 5.36932C25.8089 5.36932 26.201 5.46165 26.5362 5.64631C26.8743 5.83097 27.1357 6.10653 27.3203 6.47301C27.5078 6.83665 27.6016 7.29119 27.6016 7.83665V12H26.3274V7.99006C26.3274 7.50994 26.2038 7.13778 25.9567 6.87358C25.7095 6.60653 25.3658 6.47301 24.9254 6.47301C24.6243 6.47301 24.3544 6.53693 24.1158 6.66477C23.88 6.79261 23.6939 6.98011 23.5575 7.22727C23.424 7.47159 23.3572 7.76705 23.3572 8.11364ZM31.2067 12.1449C30.7919 12.1449 30.4169 12.0682 30.0817 11.9148C29.7464 11.7585 29.4808 11.5327 29.2848 11.2372C29.0916 10.9418 28.995 10.5795 28.995 10.1506C28.995 9.78125 29.0661 9.47727 29.2081 9.23864C29.3501 9 29.5419 8.81108 29.7834 8.67188C30.0249 8.53267 30.2947 8.42756 30.593 8.35653C30.8913 8.28551 31.1953 8.23153 31.505 8.1946C31.897 8.14915 32.2152 8.11222 32.4595 8.08381C32.7038 8.05256 32.8814 8.00284 32.9922 7.93466C33.103 7.86648 33.1584 7.75568 33.1584 7.60227V7.57244C33.1584 7.20028 33.0533 6.91193 32.843 6.70739C32.6357 6.50284 32.326 6.40057 31.9141 6.40057C31.4851 6.40057 31.147 6.49574 30.8999 6.68608C30.6555 6.87358 30.4865 7.08239 30.3928 7.3125L29.1953 7.03977C29.3374 6.64205 29.5447 6.32102 29.8175 6.0767C30.093 5.82955 30.4098 5.65057 30.7678 5.53977C31.1257 5.42614 31.5021 5.36932 31.897 5.36932C32.1584 5.36932 32.4354 5.40057 32.728 5.46307C33.0234 5.52273 33.299 5.63352 33.5547 5.79545C33.8132 5.95739 34.0249 6.18892 34.1896 6.49006C34.3544 6.78835 34.4368 7.17614 34.4368 7.65341V12H33.1925V11.1051H33.1413C33.0589 11.2699 32.9354 11.4318 32.7706 11.5909C32.6058 11.75 32.3942 11.8821 32.1357 11.9872C31.8771 12.0923 31.5675 12.1449 31.2067 12.1449ZM31.4837 11.1222C31.8359 11.1222 32.1371 11.0526 32.3871 10.9134C32.6399 10.7741 32.8317 10.5923 32.9624 10.3679C33.0959 10.1406 33.1626 9.89773 33.1626 9.6392V8.79545C33.1172 8.84091 33.0291 8.88352 32.8984 8.9233C32.7706 8.96023 32.6243 8.9929 32.4595 9.02131C32.2947 9.04687 32.1342 9.07102 31.978 9.09375C31.8217 9.11364 31.6911 9.13068 31.5859 9.14489C31.3388 9.17614 31.1129 9.22869 30.9084 9.30256C30.7067 9.37642 30.5447 9.48295 30.4226 9.62216C30.3033 9.75852 30.2436 9.94034 30.2436 10.1676C30.2436 10.483 30.3601 10.7216 30.593 10.8835C30.826 11.0426 31.1229 11.1222 31.4837 11.1222Z" fill="white"/>
</svg>
