<svg width="109" height="30" viewBox="0 0 109 30" fill="none" xmlns="http://www.w3.org/2000/svg">
<g clip-path="url(#clip0_3266_42962)">
<path d="M20.621 21.5603V20.7533C20.621 17.9515 18.3389 15.6802 15.5237 15.6802L14.8286 15.6802C12.3973 15.6802 10.4264 13.7187 10.4264 11.299V9.91545C10.4264 8.25987 11.7749 6.91776 13.4384 6.91776C15.1019 6.91776 16.4505 5.57564 16.4505 3.92006V2.99769C16.4505 1.34211 15.1019 -7.23677e-08 13.4384 0C11.7749 7.23677e-08 10.4264 1.37066 10.4264 3.02624C10.4264 4.71366 9.05188 6.11068 7.35638 6.11068H5.15526C2.30809 6.11068 -1.24454e-07 8.40776 0 11.2414C1.24454e-07 14.0749 2.30809 16.372 5.15526 16.372H5.27111C8.11828 16.372 10.4264 18.6981 10.4264 21.5317C10.4264 24.3334 12.7085 26.6334 15.5237 26.6334C18.3389 26.6334 20.621 24.3621 20.621 21.5603Z" fill="#364954"/>
<path d="M27.9612 24.0968H36.2356C41.3366 24.0968 44.1837 21.8241 44.1837 18.2232C44.1837 15.2716 42.2856 13.8254 39.5275 13.4712C41.9001 12.9694 43.4423 11.4936 43.4423 8.89623C43.4423 5.44289 40.6545 3.43582 35.85 3.43582H27.9612V24.0968ZM35.9686 6.91868C37.8964 6.91868 38.9937 7.8927 38.9937 9.42752C38.9937 10.9623 37.8667 11.9364 35.9686 11.9364H32.4098V6.91868H35.9686ZM36.2652 15.3602C38.3709 15.3602 39.6165 16.3342 39.6165 18.0166C39.6165 19.6105 38.4005 20.5845 36.2652 20.5845H32.4098V15.3602H36.2652Z" fill="#364954"/>
<path d="M53.7546 24.2739C57.8177 24.2739 60.4572 21.9127 60.9317 18.9611H56.8093C56.4534 20.3779 55.2671 21.1158 53.5767 21.1158C51.471 21.1158 50.0771 19.8171 49.9882 17.6624V17.4558H61.0503C61.1393 16.9836 61.1689 16.4818 61.1689 16.039C61.1096 11.5822 58.0253 8.74865 53.4581 8.74865C48.7426 8.74865 45.6286 11.8183 45.6286 16.5408C45.6286 21.2338 48.6832 24.2739 53.7546 24.2739ZM50.0771 14.7404C50.3144 12.9399 51.6786 11.8478 53.4877 11.8478C55.3858 11.8478 56.661 12.8809 56.9576 14.7404H50.0771Z" fill="#364954"/>
<path d="M66.8228 24.1854L66.4373 25.1889C66.0221 26.222 65.6662 26.4876 64.5985 26.4876H62.2853V30H66.3483C68.7209 30 69.492 28.7603 70.441 26.2515L77.2028 8.92575H72.7246L69.1064 19.7285L65.3993 8.92575H60.9507L66.8228 24.1854Z" fill="#364954"/>
<path d="M80.4325 7.30238C81.7967 7.30238 82.8643 6.29885 82.8643 4.97064C82.8643 3.61291 81.7967 2.60938 80.4325 2.60938C79.0682 2.60938 78.0006 3.61291 78.0006 4.97064C78.0006 6.29885 79.0682 7.30238 80.4325 7.30238ZM78.3268 24.0968H82.5381V8.92575H78.3268V24.0968Z" fill="#364954"/>
<path d="M103.365 8.74865C101.052 8.74865 99.2724 9.69316 98.2048 11.3165C97.2557 9.398 95.506 8.71914 93.6376 8.74865C91.4133 8.77817 90.0787 9.63413 89.1593 10.8148L88.7738 8.92575H85.1259V24.0968H89.3076V15.8324C89.3076 13.5597 90.4939 12.1725 92.303 12.1725C94.1417 12.1725 94.9721 13.3531 94.9721 15.6258V24.0968H99.1538V15.8029C99.1538 13.5007 100.37 12.1725 102.179 12.1725C103.988 12.1725 104.818 13.3531 104.818 15.6258V24.0968H109V15.3897C109 10.5196 106.509 8.74865 103.365 8.74865Z" fill="#364954"/>
</g>
<mask id="mask0_3266_42962" style="mask-type:alpha" maskUnits="userSpaceOnUse" x="0" y="0" width="109" height="30">
<path d="M20.621 21.5603V20.7533C20.621 17.9515 18.3389 15.6802 15.5237 15.6802L14.8286 15.6802C12.3973 15.6802 10.4264 13.7187 10.4264 11.299V9.91545C10.4264 8.25987 11.7749 6.91776 13.4384 6.91776C15.1019 6.91776 16.4505 5.57564 16.4505 3.92006V2.99769C16.4505 1.34211 15.1019 -7.23677e-08 13.4384 0C11.7749 7.23677e-08 10.4264 1.37066 10.4264 3.02624C10.4264 4.71366 9.05188 6.11068 7.35638 6.11068H5.15526C2.30809 6.11068 -1.24454e-07 8.40776 0 11.2414C1.24454e-07 14.0749 2.30809 16.372 5.15526 16.372H5.27111C8.11828 16.372 10.4264 18.6981 10.4264 21.5317C10.4264 24.3334 12.7085 26.6334 15.5237 26.6334C18.3389 26.6334 20.621 24.3621 20.621 21.5603Z" fill="#36373A"/>
<path d="M27.9612 24.0968H36.2356C41.3366 24.0968 44.1837 21.8241 44.1837 18.2232C44.1837 15.2716 42.2856 13.8254 39.5275 13.4712C41.9001 12.9694 43.4423 11.4936 43.4423 8.89623C43.4423 5.44289 40.6545 3.43582 35.85 3.43582H27.9612V24.0968ZM35.9686 6.91868C37.8964 6.91868 38.9937 7.8927 38.9937 9.42752C38.9937 10.9623 37.8667 11.9364 35.9686 11.9364H32.4098V6.91868H35.9686ZM36.2652 15.3602C38.3709 15.3602 39.6165 16.3342 39.6165 18.0166C39.6165 19.6105 38.4005 20.5845 36.2652 20.5845H32.4098V15.3602H36.2652Z" fill="#36373A"/>
<path d="M53.7546 24.2739C57.8177 24.2739 60.4572 21.9127 60.9317 18.9611H56.8093C56.4534 20.3779 55.2671 21.1158 53.5767 21.1158C51.471 21.1158 50.0771 19.8171 49.9882 17.6624V17.4558H61.0503C61.1393 16.9836 61.1689 16.4818 61.1689 16.039C61.1096 11.5822 58.0253 8.74865 53.4581 8.74865C48.7426 8.74865 45.6286 11.8183 45.6286 16.5408C45.6286 21.2338 48.6832 24.2739 53.7546 24.2739ZM50.0771 14.7404C50.3144 12.9399 51.6786 11.8478 53.4877 11.8478C55.3858 11.8478 56.661 12.8809 56.9576 14.7404H50.0771Z" fill="#36373A"/>
<path d="M66.8228 24.1854L66.4373 25.1889C66.0221 26.222 65.6662 26.4876 64.5985 26.4876H62.2853V30H66.3483C68.7209 30 69.492 28.7603 70.441 26.2515L77.2028 8.92575H72.7246L69.1064 19.7285L65.3993 8.92575H60.9507L66.8228 24.1854Z" fill="#36373A"/>
<path d="M80.4325 7.30238C81.7967 7.30238 82.8643 6.29885 82.8643 4.97064C82.8643 3.61291 81.7967 2.60938 80.4325 2.60938C79.0682 2.60938 78.0006 3.61291 78.0006 4.97064C78.0006 6.29885 79.0682 7.30238 80.4325 7.30238ZM78.3268 24.0968H82.5381V8.92575H78.3268V24.0968Z" fill="#36373A"/>
<path d="M103.365 8.74865C101.052 8.74865 99.2724 9.69316 98.2048 11.3165C97.2557 9.398 95.506 8.71914 93.6376 8.74865C91.4133 8.77817 90.0787 9.63413 89.1593 10.8148L88.7738 8.92575H85.1259V24.0968H89.3076V15.8324C89.3076 13.5597 90.4939 12.1725 92.303 12.1725C94.1417 12.1725 94.9721 13.3531 94.9721 15.6258V24.0968H99.1538V15.8029C99.1538 13.5007 100.37 12.1725 102.179 12.1725C103.988 12.1725 104.818 13.3531 104.818 15.6258V24.0968H109V15.3897C109 10.5196 106.509 8.74865 103.365 8.74865Z" fill="#36373A"/>
</mask>
<g mask="url(#mask0_3266_42962)">
<rect x="-3.63379" width="25.4333" height="28.75" fill="#55BBEB"/>
</g>
<defs>
<clipPath id="clip0_3266_42962">
<rect width="82.3556" height="30" fill="white" transform="translate(26.6445)"/>
</clipPath>
</defs>
</svg>
