<svg width="63" height="63" viewBox="0 0 63 63" fill="none" xmlns="http://www.w3.org/2000/svg">
<g filter="url(#filter0_b_3485_67947)">
<rect width="63" height="63" rx="8" fill="white" fill-opacity="0.4"/>
<g clip-path="url(#clip0_3485_67947)">
<path d="M32 30.4996H42.45C42.5191 30.4998 42.5876 30.4857 42.651 30.4581C42.7145 30.4305 42.7715 30.3901 42.8185 30.3393C42.8654 30.2886 42.9014 30.2286 42.924 30.1632C42.9467 30.0979 42.9555 30.0285 42.95 29.9596C42.703 27.1423 41.469 24.5028 39.4656 22.5067C37.4621 20.5106 34.8181 19.2863 32 19.0496C31.9311 19.0438 31.8618 19.0524 31.7963 19.0748C31.7309 19.0971 31.6709 19.1328 31.62 19.1796C31.5691 19.2268 31.5286 19.2841 31.501 19.3478C31.4735 19.4115 31.4595 19.4802 31.46 19.5496V29.9996C31.4598 30.0688 31.4739 30.1372 31.5015 30.2007C31.5291 30.2641 31.5695 30.3211 31.6203 30.3681C31.671 30.4151 31.731 30.451 31.7963 30.4737C31.8617 30.4963 31.931 30.5051 32 30.4996Z" fill="#364954"/>
<path d="M42.45 31.5H33.45C33.3521 31.5013 33.2568 31.5314 33.1759 31.5864C33.095 31.6415 33.032 31.719 32.9947 31.8095C32.9574 31.9 32.9475 31.9995 32.9663 32.0956C32.985 32.1916 33.0315 32.2801 33.1 32.35L39.49 38.74C39.5823 38.8342 39.7081 38.8881 39.84 38.89C39.9092 38.8865 39.9769 38.8688 40.0389 38.8378C40.1009 38.8068 40.1557 38.7633 40.2 38.71C41.7919 36.8135 42.7531 34.4681 42.95 32C42.9555 31.931 42.9467 31.8617 42.9241 31.7963C42.9014 31.731 42.8655 31.671 42.8185 31.6203C42.7715 31.5695 42.7145 31.5291 42.6511 31.5015C42.5876 31.4739 42.5192 31.4597 42.45 31.46V31.5Z" fill="#364954"/>
<path d="M30.6496 31.3499C30.5563 31.2569 30.5025 31.1315 30.4996 30.9999V19.5499C30.5001 19.4805 30.4861 19.4117 30.4585 19.348C30.431 19.2843 30.3905 19.2271 30.3396 19.1799C30.2472 19.0945 30.1254 19.0479 29.9996 19.0499C28.1209 19.2129 26.3071 19.8164 24.7053 20.8114C23.1034 21.8064 21.7586 23.1649 20.7799 24.7768C19.8012 26.3886 19.2161 28.2085 19.0721 30.0887C18.9282 31.9689 19.2293 33.8566 19.9512 35.5987C20.6731 37.3408 21.7954 38.8882 23.2271 40.1155C24.6587 41.3428 26.3595 42.2155 28.1914 42.6626C30.0234 43.1098 31.9349 43.119 33.7711 42.6893C35.6072 42.2597 37.3162 41.4034 38.7596 40.1899C38.8112 40.143 38.8524 40.0859 38.8806 40.0222C38.9087 39.9584 38.9233 39.8895 38.9233 39.8199C38.9233 39.7502 38.9087 39.6813 38.8806 39.6176C38.8524 39.5538 38.8112 39.4967 38.7596 39.4499L30.6496 31.3499Z" fill="#364954"/>
</g>
<rect x="0.5" y="0.5" width="62" height="62" rx="7.5" stroke="url(#paint0_linear_3485_67947)"/>
</g>
<defs>
<filter id="filter0_b_3485_67947" x="-20" y="-20" width="103" height="103" filterUnits="userSpaceOnUse" color-interpolation-filters="sRGB">
<feFlood flood-opacity="0" result="BackgroundImageFix"/>
<feGaussianBlur in="BackgroundImageFix" stdDeviation="10"/>
<feComposite in2="SourceAlpha" operator="in" result="effect1_backgroundBlur_3485_67947"/>
<feBlend mode="normal" in="SourceGraphic" in2="effect1_backgroundBlur_3485_67947" result="shape"/>
</filter>
<linearGradient id="paint0_linear_3485_67947" x1="31.5" y1="0" x2="31.5" y2="63" gradientUnits="userSpaceOnUse">
<stop stop-color="white" stop-opacity="0.41"/>
<stop offset="0.328125" stop-color="white" stop-opacity="0.37"/>
<stop offset="0.708333" stop-color="white" stop-opacity="0.17"/>
<stop offset="1" stop-color="white" stop-opacity="0.33"/>
</linearGradient>
<clipPath id="clip0_3485_67947">
<rect width="24" height="24" fill="white" transform="translate(19 19)"/>
</clipPath>
</defs>
</svg>
