<svg width="63" height="63" viewBox="0 0 63 63" fill="none" xmlns="http://www.w3.org/2000/svg">
<g filter="url(#filter0_b_3485_67956)">
<rect width="63" height="63" rx="8" fill="white" fill-opacity="0.4"/>
<path d="M22.5 24H36.52C36.796 24 37.02 23.776 37.02 23.5C37.02 23.349 36.952 23.212 36.846 23.12C36.767 22.987 36.598 22.622 36.532 22H22.5C22.224 22 22 21.776 22 21.5C22 21.224 22.224 21 22.5 21H36.528C36.613 20.186 36.88 19.825 36.88 19.825C37.007 19.678 37.036 19.469 36.955 19.291C36.874 19.113 36.695 19 36.5 19H22.5C21.122 19 20 20.121 20 21.5C20 22.879 21.122 24 22.5 24ZM36.5 32C33.467 32 31 34.468 31 37.5C31 39.014 31.615 40.387 32.609 41.383C32.612 41.386 32.612 41.39 32.614 41.392C32.627 41.405 32.644 41.414 32.657 41.427C32.893 41.658 33.148 41.87 33.423 42.056C33.458 42.08 33.496 42.099 33.531 42.123C33.796 42.294 34.073 42.445 34.366 42.569C34.401 42.584 34.438 42.594 34.474 42.609C34.773 42.728 35.082 42.825 35.403 42.89C35.423 42.894 35.443 42.895 35.463 42.899C35.8 42.963 36.146 43 36.5 43C36.854 43 37.2 42.963 37.536 42.899C37.556 42.895 37.577 42.894 37.597 42.89C37.918 42.825 38.227 42.728 38.526 42.609C38.562 42.595 38.599 42.584 38.634 42.569C38.927 42.445 39.204 42.293 39.469 42.123C39.505 42.1 39.542 42.08 39.577 42.057C39.852 41.871 40.107 41.659 40.343 41.428C40.356 41.415 40.372 41.406 40.385 41.393C40.388 41.39 40.388 41.387 40.39 41.384C41.385 40.387 42 39.014 42 37.5C42 34.468 39.533 32 36.5 32ZM40.147 40.115C39.685 39.322 38.986 38.711 38.161 38.355C38.672 37.897 39 37.239 39 36.5C39 35.121 37.878 34 36.5 34C35.122 34 34 35.121 34 36.5C34 37.239 34.328 37.897 34.84 38.355C34.014 38.711 33.316 39.322 32.854 40.115C32.322 39.377 32 38.478 32 37.5C32 35.019 34.019 33 36.5 33C38.981 33 41 35.019 41 37.5C41 38.478 40.678 39.377 40.147 40.115ZM30 37.5C30 33.916 32.916 31 36.5 31C36.776 31 37 30.776 37 30.5V25.5C37 25.224 36.776 25 36.5 25H22.5C21.896 25 21.308 24.836 20.752 24.512C20.598 24.421 20.407 24.422 20.251 24.51C20.096 24.599 20 24.765 20 24.943V38.5C20 39.879 21.122 41 22.5 41H30.185C30.357 41 30.516 40.912 30.608 40.767C30.7 40.622 30.711 40.44 30.636 40.286C30.214 39.399 30 38.463 30 37.5Z" fill="#364954"/>
<rect x="0.5" y="0.5" width="62" height="62" rx="7.5" stroke="url(#paint0_linear_3485_67956)"/>
</g>
<defs>
<filter id="filter0_b_3485_67956" x="-20" y="-20" width="103" height="103" filterUnits="userSpaceOnUse" color-interpolation-filters="sRGB">
<feFlood flood-opacity="0" result="BackgroundImageFix"/>
<feGaussianBlur in="BackgroundImageFix" stdDeviation="10"/>
<feComposite in2="SourceAlpha" operator="in" result="effect1_backgroundBlur_3485_67956"/>
<feBlend mode="normal" in="SourceGraphic" in2="effect1_backgroundBlur_3485_67956" result="shape"/>
</filter>
<linearGradient id="paint0_linear_3485_67956" x1="31.5" y1="0" x2="31.5" y2="63" gradientUnits="userSpaceOnUse">
<stop stop-color="white" stop-opacity="0.41"/>
<stop offset="0.328125" stop-color="white" stop-opacity="0.37"/>
<stop offset="0.708333" stop-color="white" stop-opacity="0.17"/>
<stop offset="1" stop-color="white" stop-opacity="0.33"/>
</linearGradient>
</defs>
</svg>
