<svg width="175" height="96" viewBox="0 0 175 96" fill="none" xmlns="http://www.w3.org/2000/svg">
<path d="M36.0089 8.0831C35.6959 8.49359 35.4012 8.92231 35.0882 9.36016C34.3098 10.621 33.6913 11.9721 33.2468 13.3829C32.1267 16.2026 31.6064 19.2211 31.7184 22.2494C25.2735 14.7238 11.5917 8.80374 0 16.1651C37.8687 22.0943 54.2205 52.3059 45.8145 95.9905H46.0814C75.1022 70.7138 47.9229 43.6584 42.6288 34.5C38.5685 27.4579 37.3348 19.5219 40.548 13.912C42.012 11.5859 44.1296 9.123 46.7628 8.09223C48.7084 7.17652 50.8431 6.72435 52.9965 6.77186C55.1499 6.81938 57.2623 7.36526 59.1647 8.36588C60.9497 9.31104 62.4807 10.6653 63.6301 12.3157C66.1161 15.9644 65.4164 22.2402 63.8972 24.6575C62.378 27.0748 62.7187 26.2995 62.0005 26.9836C60.1131 28.7259 56.4118 28.808 54.7177 27.8958C53.7277 27.5166 52.9253 26.7708 52.4804 25.816C52.4151 25.7004 52.3808 25.57 52.3808 25.4374C52.3808 25.3049 52.4151 25.1746 52.4804 25.0589C52.5489 24.9517 52.6407 24.8609 52.749 24.7931C52.8572 24.7252 52.9793 24.6821 53.1065 24.6667C54.1501 24.6623 55.1745 24.3871 56.0775 23.8686C56.9804 23.35 57.7306 22.6062 58.2532 21.7112C58.927 20.5132 59.1657 19.1224 58.9294 17.7711C58.6932 16.4198 57.9963 15.1897 56.955 14.286C56.0765 13.5988 55.0443 13.1308 53.9451 12.9212C52.846 12.7117 51.7121 12.7668 50.639 13.0819C41.8646 15.7637 42.8129 29.3644 51.0349 33.7429C52.923 34.7846 55.0427 35.3457 57.2036 35.3757C59.0886 35.4517 60.9694 35.1464 62.7312 34.4782C64.4931 33.8101 66.0991 32.7933 67.4511 31.4898C68.5245 30.4657 69.4536 29.3028 70.2132 28.0326C71.4436 25.9958 72.2921 23.7553 72.7176 21.4193C73.2278 21.8318 73.7766 22.1954 74.3564 22.5048C78.96 24.9586 85.9942 21.7112 87.541 19.2483C87.9874 18.6175 88.3005 17.9039 88.4617 17.1502C88.4991 16.9743 88.4791 16.7912 88.4047 16.6272C88.3302 16.4633 88.2051 16.327 88.0474 16.2381C87.9314 16.1751 87.8031 16.1376 87.6713 16.1282C87.5394 16.1188 87.407 16.1375 87.2831 16.1833C83.5907 17.502 79.5228 17.3283 75.9585 15.6999C74.2116 14.9396 72.7428 13.6659 71.7508 12.0511C70.8301 10.8197 70.2961 9.31455 69.3662 8.13783C67.6143 5.79991 65.3593 3.87743 62.7647 2.50966C59.6514 0.853224 56.1708 -0.00889347 52.637 0.00114685C49.4144 -0.0325738 46.2281 0.677743 43.3308 2.07581C40.4334 3.47388 37.9045 5.52125 35.9445 8.05574" fill="#59C1E6"/>
<path d="M172.431 61.2457C171.722 57.0223 171.29 54.3496 170.94 52.0053C167.334 51.0495 163.623 50.5319 159.891 50.4637C148.557 50.4637 141.799 55.9368 141.799 62.386C141.799 69.948 150.666 73.2319 156.291 75.5762C162.883 78.258 167.708 80.6023 167.708 85.5555C167.708 90.5087 163.85 93.5919 157.166 93.5919C148.032 93.5919 144.083 86.8234 142.766 82.7368L140.124 83.2112C140.74 86.4221 141.882 92.1871 142.499 93.5919C143.927 94.1641 145.395 94.6336 146.891 94.9966C149.713 95.6497 152.601 95.9862 155.499 96C167.183 96 175 90.3718 175 83.348C175 75.7768 166.714 72.6936 159.808 69.948C152.903 67.2023 148.649 64.931 148.649 60.0416C148.649 56.3929 151.632 52.7442 158.4 52.7442C166.041 52.7442 168.417 57.3689 169.908 61.5832L172.459 61.2549L172.431 61.2457Z" fill="#59C1E6"/>
<path d="M114.573 52.5253V50.5732L97.9359 50.5732V52.5253C102.871 52.726 104.491 53.6382 104.841 56.8491C105.269 60.6922 105.435 64.5595 105.338 68.4247V85.5829H105.127L75.6639 50.5732H66.3832V52.653C68.906 52.9723 70.2778 53.5652 71.576 55.0977C72.8742 56.6302 72.9939 57.0498 72.9939 62.1489V77.4919C72.9939 83.8772 72.7821 87.2523 72.5612 89.4141C72.2113 92.8348 70.3791 93.7379 66.3648 93.9751V95.9272H83.0665V93.9751C78.2788 93.7014 76.6215 92.8622 76.2992 89.3047C75.9582 85.3857 75.8169 81.4523 75.8758 77.5192V59.987H76.023L105.55 95.9454H108.211V68.4247C108.114 64.4914 108.255 60.5558 108.635 56.6393C108.911 53.6382 110.605 52.726 114.555 52.5253H114.573Z" fill="#59C1E6"/>
<path d="M139.037 95.8998V93.9477C132.15 93.5281 131.478 93.1814 131.478 87.1793V59.2846C131.478 53.3554 132.15 52.8993 139.037 52.5253V50.5732H116.774V52.5253C123.661 52.9449 124.342 53.3554 124.342 59.2846V87.1793C124.342 93.1085 123.661 93.5646 116.774 93.9477V95.8998L139.037 95.8998Z" fill="#59C1E6"/>
</svg>
